<svg width="297" height="269" viewBox="0 0 297 269" fill="none" xmlns="http://www.w3.org/2000/svg">
<line x1="-4.37114e-08" y1="268.5" x2="297" y2="268.5" stroke="white"/>
<line x1="36.5" y1="269" x2="36.5" y2="2.18557e-08" stroke="white"/>
<line x1="37" y1="0.5" x2="205" y2="0.499985" stroke="white"/>
<line x1="204.5" y1="1" x2="204.5" y2="48" stroke="white"/>
<circle cx="205" cy="78" r="29.5" stroke="white"/>
<line x1="204.5" y1="107" x2="204.5" y2="157" stroke="white"/>
<line x1="204.426" y1="156.739" x2="234.426" y2="205.739" stroke="white"/>
<line x1="204.753" y1="133.565" x2="234.753" y2="116.565" stroke="white"/>
<line y1="-0.5" x2="34.4819" y2="-0.5" transform="matrix(-0.870022 -0.493013 -0.493013 0.870022 204 134)" stroke="white"/>
<line y1="-0.5" x2="57.4543" y2="-0.5" transform="matrix(-0.522154 0.852851 0.852851 0.522154 205 157)" stroke="white"/>
<line x1="144" y1="205.5" x2="270" y2="205.5" stroke="white"/>
<line x1="269.5" y1="204.992" x2="270.5" y2="268.992" stroke="white"/>
<line x1="144.5" y1="204.992" x2="145.5" y2="268.992" stroke="white"/>
</svg>
